<svg xmlns="http://www.w3.org/2000/svg" viewBox="0 0 60 40" role="img" aria-label="People's Republic of China flag">
  <rect width="60" height="40" fill="#DE2910"/>
  <g fill="#FFDE00">
    <polygon points="10,8 11.18,11.64 15,11.64 11.91,13.89 13.09,17.53 10,15.28 6.91,17.53 8.09,13.89 5,11.64 8.82,11.64"/>
    <polygon points="19,4 19.59,5.82 21.5,5.82 19.96,6.94 20.55,8.76 19,7.64 17.45,8.76 18.04,6.94 16.5,5.82 18.41,5.82"/>
    <polygon points="23,8 23.59,9.82 25.5,9.82 23.96,10.94 24.55,12.76 23,11.64 21.45,12.76 22.04,10.94 20.5,9.82 22.41,9.82"/>
    <polygon points="23,13 23.59,14.82 25.5,14.82 23.96,15.94 24.55,17.76 23,16.64 21.45,17.76 22.04,15.94 20.5,14.82 22.41,14.82"/>
    <polygon points="19,17 19.59,18.82 21.5,18.82 19.96,19.94 20.55,21.76 19,20.64 17.45,21.76 18.04,19.94 16.5,18.82 18.41,18.82"/>
  </g>
</svg>
