<svg xmlns="http://www.w3.org/2000/svg" viewBox="0 0 60 40" role="img" aria-label="United States flag">
  <rect width="60" height="40" fill="#ffffff"/>
  <g fill="#B22234">
    <rect y="0"  width="60" height="3.08"/>
    <rect y="6.15" width="60" height="3.08"/>
    <rect y="12.31" width="60" height="3.08"/>
    <rect y="18.46" width="60" height="3.08"/>
    <rect y="24.62" width="60" height="3.08"/>
    <rect y="30.77" width="60" height="3.08"/>
    <rect y="36.92" width="60" height="3.08"/>
  </g>
  <rect width="24" height="21.54" fill="#3C3B6E"/>
  <g fill="#ffffff" font-family="serif" font-size="3.2" text-anchor="middle">
    <text x="3" y="3.5">★</text><text x="7" y="3.5">★</text><text x="11" y="3.5">★</text><text x="15" y="3.5">★</text><text x="19" y="3.5">★</text>
    <text x="5" y="6.5">★</text><text x="9" y="6.5">★</text><text x="13" y="6.5">★</text><text x="17" y="6.5">★</text>
    <text x="3" y="9.5">★</text><text x="7" y="9.5">★</text><text x="11" y="9.5">★</text><text x="15" y="9.5">★</text><text x="19" y="9.5">★</text>
    <text x="5" y="12.5">★</text><text x="9" y="12.5">★</text><text x="13" y="12.5">★</text><text x="17" y="12.5">★</text>
    <text x="3" y="15.5">★</text><text x="7" y="15.5">★</text><text x="11" y="15.5">★</text><text x="15" y="15.5">★</text><text x="19" y="15.5">★</text>
    <text x="5" y="18.5">★</text><text x="9" y="18.5">★</text><text x="13" y="18.5">★</text><text x="17" y="18.5">★</text>
  </g>
</svg>
